<?xml version="1.0" standalone="no"?>
<!DOCTYPE svg PUBLIC "-//W3C//DTD SVG 20010904//EN"
 "http://www.w3.org/TR/2001/REC-SVG-20010904/DTD/svg10.dtd">
<svg version="1.0" xmlns="http://www.w3.org/2000/svg"
 width="400.000000pt" height="400.000000pt" viewBox="0 0 400.000000 400.000000"
 preserveAspectRatio="xMidYMid meet">
<metadata>
Created by potrace 1.14, written by Peter Selinger 2001-2017
</metadata>
<g transform="translate(0.000000,400.000000) scale(0.100000,-0.100000)"
fill="#000000" stroke="none">
<path d="M1710 3985 c-245 -33 -530 -135 -748 -268 -518 -316 -863 -840 -946
-1436 -20 -142 -21 -421 -1 -561 74 -526 344 -986 771 -1316 240 -185 548
-320 866 -381 134 -25 562 -25 696 0 867 165 1516 837 1637 1697 20 140 19
419 -1 561 -83 596 -428 1120 -946 1436 -225 137 -531 244 -783 273 -121 13
-427 11 -545 -5z"/>
</g>
</svg>
