<?xml version="1.0" encoding="utf-8"?>
<svg viewBox="220.125 160.1 171.7441 291.9" xmlns="http://www.w3.org/2000/svg">
  <g transform="matrix(0.10000000149011612, 0, 0, -0.10000000149011612, 0, 612)" fill="#000000" stroke="none">
    <path d="M3090 4398 c-179 -132 -182 -134 -210 -193 -19 -38 -20 -68 -20 -583&#10;l0 -543 58 43 c31 23 102 75 157 115 55 40 112 85 127 100 59 56 59 57 56 645&#10;l-3 537 -165 -121z" style="fill: rgb(255, 255, 255);"/>
    <path d="M3770 3995 c-206 -150 -206 -150 -229 -198 -21 -43 -21 -49 -21 -876&#10;0 -520 4 -831 9 -829 14 4 289 207 328 241 65 57 63 34 61 945 l-3 823 -145&#10;-106z" style="fill: rgb(255, 255, 255);"/>
    <path d="M2418 3905 c-131 -97 -172 -133 -190 -167 l-23 -43 -3 -645 c-1 -355&#10;-1 -732 0 -838 l3 -192 175 128 c140 103 179 137 197 172 l23 43 0 834 c0 458&#10;-3 833 -7 833 -5 0 -83 -56 -175 -125z" style="fill: rgb(255, 255, 255);"/>
    <path d="M3225 3015 c-16 -12 -91 -68 -166 -123 -146 -108 -173 -135 -189&#10;-191 -7 -24 -10 -219 -8 -568 l3 -533 170 125 c150 110 173 130 198 177 l27&#10;53 -2 541 -3 542 -30 -23z" style="fill: rgb(255, 255, 255);"/>
  </g>
</svg>